<svg width="709" height="256" viewBox="0 0 709 256" fill="none" xmlns="http://www.w3.org/2000/svg">
<path fill-rule="evenodd" clip-rule="evenodd" d="M91.9074 0C17.7604 0 0 57.1622 0 127.674C0 198.186 17.7604 255.349 91.9074 255.349H574.745C648.891 255.349 709 198.186 709 127.674C709 57.1622 648.891 0 574.745 0H91.9074ZM574.745 204.913C621.929 204.913 660.18 168.537 660.18 123.665C660.18 78.7937 621.929 42.4181 574.745 42.4181C527.56 42.4181 489.31 78.7937 489.31 123.665C489.31 168.537 527.56 204.913 574.745 204.913Z" fill="#088C29"/>
<path d="M64.6133 47.7471H73.4804L85.3554 76.7314H85.8242L97.6992 47.7471H106.566V87.7471H99.6133V60.2666H99.2422L88.1875 87.6299H82.9922L71.9375 60.208H71.5664V87.7471H64.6133V47.7471ZM119.594 87.7471H111.859L125.941 47.7471H134.887L148.988 87.7471H141.254L130.57 55.9502H130.258L119.594 87.7471ZM119.848 72.0635H140.941V77.8838H119.848V72.0635ZM147.665 53.8213V47.7471H179.579V53.8213H167.216V87.7471H160.028V53.8213H147.665ZM185.731 87.7471V47.7471H200.731C203.804 47.7471 206.382 48.2809 208.466 49.3486C210.562 50.4163 212.144 51.9137 213.212 53.8408C214.293 55.7549 214.833 57.988 214.833 60.54C214.833 63.1051 214.286 65.3317 213.192 67.2197C212.112 69.0947 210.517 70.5465 208.407 71.5752C206.298 72.5908 203.707 73.0986 200.634 73.0986H189.95V67.083H199.657C201.454 67.083 202.925 66.8356 204.071 66.3408C205.217 65.833 206.063 65.0973 206.61 64.1338C207.17 63.1572 207.45 61.9593 207.45 60.54C207.45 59.1208 207.17 57.9098 206.61 56.9072C206.05 55.8916 205.198 55.1234 204.052 54.6025C202.906 54.0687 201.428 53.8018 199.618 53.8018H192.978V87.7471H185.731ZM206.395 69.6221L216.298 87.7471H208.212L198.485 69.6221H206.395ZM228.749 47.7471V87.7471H221.503V47.7471H228.749ZM222.421 43.8018L226.796 34.876H233.71L227.714 43.8018H222.421ZM270.834 61.2432H263.529C263.321 60.0452 262.937 58.984 262.377 58.0596C261.817 57.1221 261.12 56.3278 260.287 55.6768C259.454 55.0257 258.503 54.5374 257.436 54.2119C256.381 53.8734 255.242 53.7041 254.018 53.7041C251.843 53.7041 249.916 54.251 248.236 55.3447C246.557 56.4255 245.242 58.014 244.291 60.1104C243.34 62.1937 242.865 64.7393 242.865 67.7471C242.865 70.807 243.34 73.3851 244.291 75.4814C245.255 77.5648 246.57 79.1403 248.236 80.208C249.916 81.2627 251.837 81.79 253.998 81.79C255.196 81.79 256.316 81.6338 257.357 81.3213C258.412 80.9958 259.356 80.5205 260.189 79.8955C261.036 79.2705 261.745 78.5023 262.318 77.5908C262.904 76.6794 263.308 75.6377 263.529 74.4658L270.834 74.5049C270.561 76.4059 269.968 78.1898 269.057 79.8564C268.158 81.5231 266.98 82.9945 265.521 84.2705C264.063 85.5335 262.357 86.5231 260.404 87.2393C258.451 87.9424 256.283 88.2939 253.9 88.2939C250.385 88.2939 247.247 87.4801 244.486 85.8525C241.726 84.2249 239.551 81.8747 237.963 78.8018C236.374 75.7288 235.58 72.0439 235.58 67.7471C235.58 63.4372 236.381 59.7523 237.982 56.6924C239.584 53.6195 241.765 51.2692 244.525 49.6416C247.286 48.014 250.411 47.2002 253.9 47.2002C256.127 47.2002 258.197 47.5127 260.111 48.1377C262.025 48.7627 263.731 49.6807 265.228 50.8916C266.726 52.0895 267.956 53.5609 268.92 55.3057C269.896 57.0374 270.534 59.0166 270.834 61.2432ZM302.685 47.7471H309.931V73.8799C309.931 76.7445 309.254 79.264 307.899 81.4385C306.558 83.613 304.67 85.3122 302.235 86.5361C299.8 87.7471 296.955 88.3525 293.7 88.3525C290.432 88.3525 287.58 87.7471 285.145 86.5361C282.711 85.3122 280.823 83.613 279.481 81.4385C278.14 79.264 277.47 76.7445 277.47 73.8799V47.7471H284.716V73.2744C284.716 74.9411 285.08 76.4255 285.81 77.7275C286.552 79.0296 287.593 80.0518 288.935 80.7939C290.276 81.5231 291.864 81.8877 293.7 81.8877C295.536 81.8877 297.125 81.5231 298.466 80.7939C299.82 80.0518 300.862 79.0296 301.591 77.7275C302.32 76.4255 302.685 74.9411 302.685 73.2744V47.7471ZM317.807 87.7471V47.7471H325.053V81.6729H342.67V87.7471H317.807ZM355.6 87.7471H347.865L361.947 47.7471H370.893L384.994 87.7471H377.26L366.576 55.9502H366.264L355.6 87.7471ZM355.853 72.0635H376.947V77.8838H355.853V72.0635ZM411.356 58.7432C411.174 57.0374 410.406 55.7093 409.052 54.7588C407.711 53.8083 405.966 53.333 403.817 53.333C402.307 53.333 401.011 53.5609 399.931 54.0166C398.85 54.4723 398.023 55.0908 397.45 55.8721C396.877 56.6533 396.584 57.5452 396.571 58.5479C396.571 59.3812 396.76 60.1038 397.138 60.7158C397.528 61.3278 398.056 61.8486 398.72 62.2783C399.384 62.695 400.119 63.0465 400.927 63.333C401.734 63.6195 402.548 63.8604 403.368 64.0557L407.118 64.9932C408.629 65.3447 410.08 65.82 411.474 66.4189C412.88 67.0179 414.136 67.7731 415.243 68.6846C416.363 69.596 417.248 70.6963 417.899 71.9854C418.55 73.2744 418.876 74.7848 418.876 76.5166C418.876 78.8604 418.277 80.9242 417.079 82.708C415.881 84.4788 414.149 85.8656 411.884 86.8682C409.631 87.8577 406.903 88.3525 403.7 88.3525C400.588 88.3525 397.886 87.8708 395.595 86.9072C393.316 85.9437 391.532 84.5374 390.243 82.6885C388.967 80.8395 388.277 78.5869 388.173 75.9307H395.302C395.406 77.3239 395.836 78.4827 396.591 79.4072C397.346 80.3317 398.329 81.0218 399.54 81.4775C400.764 81.9333 402.131 82.1611 403.642 82.1611C405.217 82.1611 406.597 81.9268 407.782 81.458C408.98 80.9762 409.918 80.3122 410.595 79.4658C411.272 78.6064 411.617 77.6038 411.63 76.458C411.617 75.4163 411.311 74.557 410.712 73.8799C410.113 73.1898 409.273 72.6169 408.192 72.1611C407.125 71.6924 405.875 71.2757 404.442 70.9111L399.892 69.7393C396.597 68.8929 393.993 67.6104 392.079 65.8916C390.178 64.1598 389.228 61.8617 389.228 58.9971C389.228 56.6403 389.866 54.5765 391.142 52.8057C392.431 51.0348 394.182 49.6611 396.395 48.6846C398.609 47.695 401.116 47.2002 403.915 47.2002C406.754 47.2002 409.241 47.695 411.376 48.6846C413.524 49.6611 415.211 51.0218 416.435 52.7666C417.658 54.4984 418.29 56.4906 418.329 58.7432H411.356ZM74.2446 159.747H62.381L80.4577 107.383H94.7248L112.776 159.747H100.912L87.7958 119.349H87.3867L74.2446 159.747ZM73.5032 139.165H101.526V147.807H73.5032V139.165ZM119.078 159.747V107.383H140.044C143.897 107.383 147.11 107.954 149.684 109.097C152.257 110.239 154.192 111.824 155.488 113.852C156.783 115.864 157.431 118.182 157.431 120.807C157.431 122.852 157.022 124.65 156.203 126.202C155.385 127.736 154.26 128.997 152.828 129.986C151.414 130.957 149.794 131.648 147.97 132.057V132.568C149.965 132.653 151.831 133.216 153.57 134.256C155.326 135.295 156.749 136.753 157.84 138.628C158.931 140.486 159.476 142.702 159.476 145.275C159.476 148.054 158.786 150.534 157.405 152.716C156.042 154.881 154.022 156.594 151.345 157.855C148.669 159.116 145.371 159.747 141.451 159.747H119.078ZM130.149 150.696H139.175C142.26 150.696 144.51 150.108 145.925 148.932C147.34 147.739 148.047 146.153 148.047 144.176C148.047 142.727 147.698 141.449 146.999 140.341C146.3 139.233 145.303 138.364 144.007 137.733C142.729 137.102 141.203 136.787 139.431 136.787H130.149V150.696ZM130.149 129.295H138.357C139.874 129.295 141.22 129.031 142.397 128.503C143.59 127.957 144.527 127.19 145.209 126.202C145.908 125.213 146.257 124.028 146.257 122.648C146.257 120.756 145.584 119.23 144.238 118.071C142.908 116.912 141.016 116.332 138.561 116.332H130.149V129.295ZM166.68 159.747V107.383H201.964V116.511H177.751V128.989H200.149V138.116H177.751V150.619H202.066V159.747H166.68ZM210.766 159.747V107.383H231.425C235.38 107.383 238.755 108.091 241.55 109.506C244.363 110.903 246.502 112.889 247.968 115.463C249.451 118.02 250.192 121.028 250.192 124.489C250.192 127.966 249.442 130.957 247.942 133.463C246.442 135.952 244.269 137.861 241.422 139.19C238.593 140.52 235.167 141.185 231.144 141.185H217.311V132.287H229.354C231.468 132.287 233.223 131.997 234.621 131.418C236.019 130.838 237.059 129.969 237.74 128.81C238.439 127.65 238.789 126.21 238.789 124.489C238.789 122.75 238.439 121.284 237.74 120.091C237.059 118.898 236.01 117.994 234.595 117.381C233.198 116.75 231.434 116.435 229.303 116.435H221.837V159.747H210.766ZM239.044 135.918L252.059 159.747H239.837L227.104 135.918H239.044ZM256.022 116.511V107.383H299.027V116.511H282.996V159.747H272.053V116.511H256.022ZM308.737 159.747H296.873L314.95 107.383H329.217L347.268 159.747H335.404L322.288 119.349H321.879L308.737 159.747ZM307.995 139.165H336.018V147.807H307.995V139.165ZM380.782 122.443C380.577 120.381 379.699 118.778 378.148 117.636C376.597 116.494 374.492 115.923 371.833 115.923C370.026 115.923 368.5 116.179 367.256 116.69C366.012 117.185 365.057 117.875 364.392 118.761C363.745 119.648 363.421 120.653 363.421 121.778C363.387 122.716 363.583 123.534 364.009 124.233C364.452 124.932 365.057 125.537 365.824 126.048C366.591 126.543 367.478 126.977 368.483 127.352C369.489 127.71 370.563 128.017 371.705 128.273L376.409 129.398C378.694 129.909 380.79 130.591 382.699 131.443C384.608 132.295 386.262 133.344 387.659 134.588C389.057 135.832 390.14 137.298 390.907 138.986C391.691 140.673 392.091 142.608 392.108 144.79C392.091 147.994 391.273 150.773 389.654 153.125C388.051 155.46 385.733 157.275 382.699 158.571C379.682 159.849 376.043 160.489 371.782 160.489C367.554 160.489 363.872 159.841 360.736 158.545C357.617 157.25 355.179 155.332 353.424 152.793C351.685 150.236 350.773 147.074 350.688 143.307H361.401C361.52 145.062 362.023 146.528 362.909 147.704C363.813 148.864 365.015 149.741 366.515 150.338C368.032 150.918 369.745 151.207 371.654 151.207C373.529 151.207 375.157 150.935 376.537 150.389C377.935 149.844 379.017 149.085 379.784 148.114C380.551 147.142 380.935 146.025 380.935 144.764C380.935 143.588 380.586 142.599 379.887 141.798C379.205 140.997 378.199 140.315 376.87 139.753C375.557 139.19 373.946 138.679 372.037 138.219L366.336 136.787C361.921 135.713 358.435 134.034 355.878 131.75C353.321 129.466 352.051 126.389 352.069 122.52C352.051 119.349 352.895 116.579 354.6 114.21C356.321 111.841 358.682 109.991 361.682 108.662C364.682 107.332 368.091 106.668 371.909 106.668C375.796 106.668 379.188 107.332 382.086 108.662C385 109.991 387.267 111.841 388.887 114.21C390.506 116.579 391.341 119.324 391.392 122.443H380.782ZM412.365 107.383L411.368 144.048H402.01L400.987 107.383H412.365ZM406.689 160.412C405.001 160.412 403.552 159.815 402.342 158.622C401.132 157.412 400.535 155.963 400.552 154.275C400.535 152.605 401.132 151.173 402.342 149.98C403.552 148.787 405.001 148.19 406.689 148.19C408.308 148.19 409.731 148.787 410.958 149.98C412.186 151.173 412.808 152.605 412.825 154.275C412.808 155.4 412.51 156.432 411.93 157.369C411.368 158.29 410.626 159.031 409.706 159.594C408.785 160.139 407.779 160.412 406.689 160.412Z" fill="white"/>
<path d="M69.0149 211.964V191.601H72.7038V208.872H81.6726V211.964H69.0149ZM88.255 211.964H84.3175L91.4865 191.601H96.0405L103.219 211.964H99.2819L93.843 195.777H93.6839L88.255 211.964ZM88.3842 203.98H99.1229V206.943H88.3842V203.98ZM118.587 198.103C118.421 197.567 118.192 197.086 117.901 196.662C117.616 196.231 117.271 195.863 116.866 195.558C116.469 195.253 116.011 195.024 115.494 194.872C114.977 194.713 114.414 194.633 113.804 194.633C112.71 194.633 111.736 194.908 110.881 195.459C110.026 196.009 109.353 196.817 108.862 197.885C108.378 198.945 108.136 200.238 108.136 201.763C108.136 203.3 108.378 204.603 108.862 205.67C109.346 206.737 110.019 207.549 110.881 208.106C111.742 208.656 112.743 208.932 113.884 208.932C114.918 208.932 115.812 208.733 116.568 208.335C117.33 207.937 117.917 207.374 118.328 206.645C118.739 205.909 118.945 205.047 118.945 204.059L119.78 204.189H114.251V201.305H122.514V203.751C122.514 205.495 122.143 207.003 121.401 208.275C120.658 209.548 119.637 210.529 118.338 211.218C117.039 211.901 115.547 212.243 113.864 212.243C111.988 212.243 110.34 211.822 108.922 210.98C107.51 210.131 106.406 208.928 105.611 207.37C104.822 205.806 104.428 203.95 104.428 201.802C104.428 200.158 104.66 198.69 105.124 197.397C105.594 196.105 106.25 195.008 107.092 194.106C107.934 193.198 108.922 192.509 110.055 192.038C111.189 191.561 112.422 191.322 113.754 191.322C114.881 191.322 115.932 191.488 116.906 191.819C117.881 192.144 118.746 192.608 119.501 193.211C120.264 193.815 120.89 194.531 121.381 195.359C121.871 196.188 122.193 197.102 122.345 198.103H118.587ZM144.277 201.782C144.277 203.977 143.866 205.856 143.044 207.42C142.229 208.978 141.115 210.171 139.703 211C138.298 211.828 136.704 212.243 134.921 212.243C133.138 212.243 131.54 211.828 130.128 211C128.723 210.165 127.609 208.968 126.787 207.41C125.972 205.846 125.564 203.97 125.564 201.782C125.564 199.588 125.972 197.712 126.787 196.155C127.609 194.59 128.723 193.394 130.128 192.565C131.54 191.736 133.138 191.322 134.921 191.322C136.704 191.322 138.298 191.736 139.703 192.565C141.115 193.394 142.229 194.59 143.044 196.155C143.866 197.712 144.277 199.588 144.277 201.782ZM140.569 201.782C140.569 200.238 140.327 198.935 139.843 197.875C139.365 196.808 138.703 196.002 137.854 195.459C137.006 194.908 136.028 194.633 134.921 194.633C133.814 194.633 132.836 194.908 131.988 195.459C131.139 196.002 130.473 196.808 129.989 197.875C129.512 198.935 129.273 200.238 129.273 201.782C129.273 203.327 129.512 204.633 129.989 205.7C130.473 206.761 131.139 207.566 131.988 208.116C132.836 208.66 133.814 208.932 134.921 208.932C136.028 208.932 137.006 208.66 137.854 208.116C138.703 207.566 139.365 206.761 139.843 205.7C140.327 204.633 140.569 203.327 140.569 201.782ZM149.286 211.964H145.349L152.518 191.601H157.072L164.251 211.964H160.313L154.874 195.777H154.715L149.286 211.964ZM149.415 203.98H160.154V206.943H149.415V203.98ZM184.945 197.199C184.852 196.33 184.461 195.654 183.772 195.17C183.089 194.686 182.201 194.444 181.107 194.444C180.338 194.444 179.678 194.56 179.128 194.792C178.578 195.024 178.157 195.339 177.865 195.737C177.574 196.135 177.425 196.589 177.418 197.099C177.418 197.523 177.514 197.891 177.706 198.203C177.905 198.514 178.174 198.78 178.512 198.998C178.85 199.21 179.224 199.389 179.635 199.535C180.046 199.681 180.461 199.804 180.878 199.903L182.787 200.38C183.556 200.559 184.295 200.801 185.005 201.106C185.721 201.411 186.36 201.796 186.924 202.26C187.494 202.724 187.944 203.284 188.276 203.94C188.607 204.596 188.773 205.365 188.773 206.247C188.773 207.44 188.468 208.491 187.858 209.399C187.248 210.3 186.367 211.006 185.213 211.517C184.067 212.021 182.678 212.272 181.047 212.272C179.463 212.272 178.087 212.027 176.921 211.537C175.761 211.046 174.853 210.33 174.196 209.389C173.547 208.448 173.195 207.301 173.142 205.949H176.772C176.825 206.658 177.043 207.248 177.428 207.718C177.812 208.189 178.313 208.54 178.929 208.772C179.552 209.004 180.248 209.12 181.017 209.12C181.819 209.12 182.522 209.001 183.125 208.763C183.735 208.517 184.212 208.179 184.557 207.748C184.902 207.311 185.078 206.8 185.084 206.217C185.078 205.687 184.922 205.249 184.617 204.905C184.312 204.553 183.884 204.262 183.334 204.03C182.791 203.791 182.154 203.579 181.425 203.393L179.108 202.797C177.431 202.366 176.105 201.713 175.131 200.838C174.163 199.956 173.679 198.786 173.679 197.328C173.679 196.128 174.004 195.077 174.654 194.176C175.31 193.274 176.202 192.575 177.328 192.078C178.455 191.574 179.731 191.322 181.157 191.322C182.602 191.322 183.868 191.574 184.955 192.078C186.049 192.575 186.907 193.268 187.53 194.156C188.153 195.038 188.475 196.052 188.495 197.199H184.945ZM194.349 211.964H190.411L197.58 191.601H202.134L209.313 211.964H205.376L199.937 195.777H199.778L194.349 211.964ZM194.478 203.98H205.217V206.943H194.478V203.98ZM228.73 191.601V211.964H225.448L215.853 198.093H215.684V211.964H211.995V191.601H215.297L224.882 205.481H225.061V191.601H228.73ZM231.854 194.693V191.601H248.102V194.693H241.808V211.964H238.148V194.693H231.854ZM251.388 211.964H247.45L254.619 191.601H259.173L266.352 211.964H262.415L256.976 195.777H256.817L251.388 211.964ZM251.517 203.98H262.256V206.943H251.517V203.98ZM275.98 211.964V191.601H289.224V194.693H279.669V200.221H288.538V203.314H279.669V208.872H289.304V211.964H275.98ZM299.933 211.964V191.601H307.569C309.134 191.601 310.446 191.872 311.507 192.416C312.574 192.959 313.379 193.722 313.923 194.703C314.473 195.677 314.748 196.814 314.748 198.113C314.748 199.419 314.47 200.553 313.913 201.514C313.363 202.468 312.551 203.208 311.477 203.731C310.403 204.248 309.084 204.507 307.52 204.507H302.081V201.444H307.022C307.937 201.444 308.686 201.318 309.27 201.067C309.853 200.808 310.284 200.433 310.562 199.943C310.847 199.446 310.99 198.836 310.99 198.113C310.99 197.391 310.847 196.774 310.562 196.264C310.277 195.747 309.843 195.356 309.26 195.091C308.676 194.819 307.924 194.683 307.002 194.683H303.622V211.964H299.933ZM310.453 202.737L315.494 211.964H311.377L306.426 202.737H310.453ZM318.144 211.964V191.601H331.388V194.693H321.833V200.221H330.702V203.314H321.833V208.872H331.468V211.964H318.144ZM348.794 198.103C348.628 197.567 348.399 197.086 348.108 196.662C347.823 196.231 347.478 195.863 347.073 195.558C346.676 195.253 346.218 195.024 345.701 194.872C345.184 194.713 344.621 194.633 344.011 194.633C342.917 194.633 341.943 194.908 341.088 195.459C340.233 196.009 339.56 196.817 339.069 197.885C338.585 198.945 338.343 200.238 338.343 201.763C338.343 203.3 338.585 204.603 339.069 205.67C339.553 206.737 340.226 207.549 341.088 208.106C341.949 208.656 342.95 208.932 344.091 208.932C345.125 208.932 346.02 208.733 346.775 208.335C347.538 207.937 348.124 207.374 348.535 206.645C348.946 205.909 349.152 205.047 349.152 204.059L349.987 204.189H344.458V201.305H352.721V203.751C352.721 205.495 352.35 207.003 351.608 208.275C350.865 209.548 349.844 210.529 348.545 211.218C347.246 211.901 345.754 212.243 344.071 212.243C342.195 212.243 340.547 211.822 339.129 210.98C337.717 210.131 336.613 208.928 335.818 207.37C335.029 205.806 334.635 203.95 334.635 201.802C334.635 200.158 334.867 198.69 335.331 197.397C335.801 196.105 336.457 195.008 337.299 194.106C338.141 193.198 339.129 192.509 340.262 192.038C341.396 191.561 342.629 191.322 343.961 191.322C345.088 191.322 346.139 191.488 347.113 191.819C348.088 192.144 348.953 192.608 349.708 193.211C350.471 193.815 351.097 194.531 351.588 195.359C352.078 196.188 352.4 197.102 352.552 198.103H348.794ZM359.977 191.601V211.964H356.288V191.601H359.977ZM366.587 211.964H362.649L369.819 191.601H374.373L381.551 211.964H377.614L372.175 195.777H372.016L366.587 211.964ZM366.716 203.98H377.455V206.943H366.716V203.98ZM369.182 189.592L366.995 189.542C366.995 188.362 367.3 187.438 367.909 186.768C368.526 186.099 369.278 185.764 370.167 185.764C370.597 185.764 370.972 185.837 371.29 185.983C371.615 186.122 371.91 186.284 372.175 186.47C372.44 186.656 372.702 186.821 372.961 186.967C373.219 187.106 373.504 187.176 373.816 187.176C374.194 187.176 374.492 187.033 374.711 186.748C374.936 186.463 375.052 186.099 375.059 185.655L377.196 185.744C377.19 186.931 376.881 187.852 376.272 188.508C375.662 189.158 374.916 189.486 374.034 189.493C373.551 189.493 373.146 189.423 372.821 189.284C372.497 189.138 372.212 188.972 371.966 188.787C371.728 188.601 371.486 188.439 371.24 188.299C370.995 188.154 370.707 188.081 370.375 188.081C370.024 188.081 369.736 188.22 369.51 188.498C369.292 188.777 369.182 189.141 369.182 189.592ZM401.473 201.782C401.473 203.977 401.062 205.856 400.24 207.42C399.424 208.978 398.311 210.171 396.899 211C395.493 211.828 393.899 212.243 392.116 212.243C390.333 212.243 388.735 211.828 387.323 211C385.918 210.165 384.805 208.968 383.983 207.41C383.167 205.846 382.76 203.97 382.76 201.782C382.76 199.588 383.167 197.712 383.983 196.155C384.805 194.59 385.918 193.394 387.323 192.565C388.735 191.736 390.333 191.322 392.116 191.322C393.899 191.322 395.493 191.736 396.899 192.565C398.311 193.394 399.424 194.59 400.24 196.155C401.062 197.712 401.473 199.588 401.473 201.782ZM397.764 201.782C397.764 200.238 397.522 198.935 397.038 197.875C396.561 196.808 395.898 196.002 395.049 195.459C394.201 194.908 393.223 194.633 392.116 194.633C391.009 194.633 390.031 194.908 389.183 195.459C388.334 196.002 387.668 196.808 387.184 197.875C386.707 198.935 386.468 200.238 386.468 201.782C386.468 203.327 386.707 204.633 387.184 205.7C387.668 206.761 388.334 207.566 389.183 208.116C390.031 208.66 391.009 208.932 392.116 208.932C393.223 208.932 394.201 208.66 395.049 208.116C395.898 207.566 396.561 206.761 397.038 205.7C397.522 204.633 397.764 203.327 397.764 201.782ZM409.206 191.601L408.878 205.978H405.676L405.358 191.601H409.206ZM407.277 212.183C406.674 212.183 406.157 211.971 405.726 211.547C405.302 211.122 405.089 210.605 405.089 209.995C405.089 209.399 405.302 208.888 405.726 208.464C406.157 208.04 406.674 207.828 407.277 207.828C407.867 207.828 408.377 208.04 408.808 208.464C409.246 208.888 409.464 209.399 409.464 209.995C409.464 210.4 409.362 210.768 409.156 211.099C408.957 211.431 408.692 211.696 408.361 211.895C408.036 212.087 407.675 212.183 407.277 212.183Z" fill="white"/>
</svg>
