<svg width="783" height="282" viewBox="0 0 783 282" fill="none" xmlns="http://www.w3.org/2000/svg">
<path fill-rule="evenodd" clip-rule="evenodd" d="M101.5 0C19.6141 0 0 63.1284 0 141C0 218.872 19.6141 282 101.5 282H634.732C716.618 282 783 218.872 783 141C783 63.1284 716.618 0 634.732 0H101.5ZM634.732 226.3C686.842 226.3 729.084 186.128 729.084 136.573C729.084 87.0176 686.842 46.8454 634.732 46.8454C582.623 46.8454 540.38 87.0176 540.38 136.573C540.38 186.128 582.623 226.3 634.732 226.3Z" fill="#088C29"/>
<path d="M71.6626 44.7273H82.142L96.1761 78.9815H96.7301L110.764 44.7273H121.244V92H113.026V59.5231H112.588L99.5231 91.8615H93.3832L80.3185 59.4538H79.88V92H71.6626V44.7273ZM136.64 92H127.499L144.141 44.7273H154.713L171.379 92H162.238L149.612 54.4219H149.243L136.64 92ZM136.94 73.4648H161.869V80.3434H136.94V73.4648ZM169.815 51.9059V44.7273H207.531V51.9059H192.92V92H184.426V51.9059H169.815ZM214.802 92V44.7273H232.53C236.161 44.7273 239.208 45.3582 241.67 46.62C244.148 47.8819 246.017 49.6515 247.279 51.929C248.556 54.1911 249.195 56.8301 249.195 59.8462C249.195 62.8777 248.549 65.5091 247.256 67.7404C245.979 69.9563 244.094 71.6721 241.601 72.8878C239.108 74.0881 236.046 74.6882 232.414 74.6882H219.788V67.5788H231.26C233.384 67.5788 235.122 67.2865 236.477 66.7017C237.831 66.1016 238.831 65.2321 239.477 64.0934C240.139 62.9393 240.47 61.5236 240.47 59.8462C240.47 58.1689 240.139 56.7378 239.477 55.5529C238.816 54.3526 237.808 53.4447 236.454 52.8292C235.099 52.1983 233.353 51.8828 231.214 51.8828H223.366V92H214.802ZM239.223 70.5795L250.926 92H241.37L229.875 70.5795H239.223ZM265.641 44.7273V92H257.078V44.7273H265.641ZM315.378 60.6772H306.745C306.499 59.2615 306.045 58.0073 305.383 56.9148C304.722 55.8068 303.898 54.8681 302.914 54.0987C301.929 53.3293 300.805 52.7522 299.544 52.3675C298.297 51.9674 296.951 51.7674 295.504 51.7674C292.934 51.7674 290.657 52.4137 288.672 53.7063C286.687 54.9835 285.132 56.8609 284.009 59.3384C282.886 61.8005 282.324 64.8089 282.324 68.3636C282.324 71.9799 282.886 75.0268 284.009 77.5043C285.148 79.9664 286.702 81.8284 288.672 83.0902C290.657 84.3366 292.927 84.9599 295.481 84.9599C296.897 84.9599 298.22 84.7752 299.451 84.4059C300.698 84.0212 301.813 83.4595 302.798 82.7209C303.798 81.9822 304.637 81.0743 305.314 79.9972C306.007 78.92 306.484 77.6889 306.745 76.304L315.378 76.3501C315.055 78.5968 314.355 80.705 313.278 82.6747C312.216 84.6444 310.823 86.3833 309.1 87.8913C307.376 89.384 305.36 90.5535 303.052 91.3999C300.744 92.2308 298.182 92.6463 295.366 92.6463C291.211 92.6463 287.502 91.6845 284.24 89.761C280.978 87.8375 278.408 85.0599 276.53 81.4283C274.653 77.7966 273.714 73.4418 273.714 68.3636C273.714 63.2701 274.661 58.9152 276.553 55.299C278.446 51.6674 281.024 48.8898 284.286 46.9663C287.548 45.0427 291.242 44.081 295.366 44.081C297.997 44.081 300.444 44.4503 302.706 45.1889C304.968 45.9276 306.984 47.0124 308.753 48.4435C310.523 49.8593 311.977 51.5981 313.116 53.6602C314.27 55.7068 315.024 58.0458 315.378 60.6772ZM353.02 44.7273H361.583V75.6115C361.583 78.9969 360.783 81.9745 359.183 84.5444C357.598 87.1142 355.366 89.1224 352.489 90.5689C349.611 92 346.249 92.7156 342.402 92.7156C338.539 92.7156 335.169 92 332.292 90.5689C329.414 89.1224 327.183 87.1142 325.598 84.5444C324.013 81.9745 323.22 78.9969 323.22 75.6115V44.7273H331.784V74.896C331.784 76.8656 332.215 78.6199 333.076 80.1587C333.954 81.6976 335.185 82.9055 336.77 83.7827C338.355 84.6444 340.232 85.0753 342.402 85.0753C344.571 85.0753 346.449 84.6444 348.034 83.7827C349.634 82.9055 350.865 81.6976 351.727 80.1587C352.589 78.6199 353.02 76.8656 353.02 74.896V44.7273ZM370.891 92V44.7273H379.455V84.8214H400.275V92H370.891ZM415.556 92H406.415L423.057 44.7273H433.629L450.295 92H441.154L428.528 54.4219H428.159L415.556 92ZM415.856 73.4648H440.785V80.3434H415.856V73.4648ZM481.45 57.7227C481.235 55.7068 480.327 54.1372 478.726 53.0138C477.141 51.8905 475.079 51.3288 472.54 51.3288C470.755 51.3288 469.224 51.5981 467.947 52.1367C466.67 52.6753 465.692 53.4062 465.015 54.3295C464.338 55.2528 463.992 56.3069 463.977 57.4918C463.977 58.4767 464.2 59.3307 464.646 60.054C465.108 60.7772 465.731 61.3928 466.516 61.9006C467.301 62.393 468.17 62.8085 469.124 63.147C470.078 63.4856 471.04 63.7702 472.009 64.0011L476.441 65.109C478.226 65.5245 479.942 66.0862 481.589 66.794C483.25 67.5019 484.735 68.3944 486.043 69.4716C487.367 70.5488 488.413 71.8491 489.183 73.3725C489.952 74.896 490.337 76.681 490.337 78.7276C490.337 81.4975 489.629 83.9366 488.213 86.0447C486.797 88.1375 484.751 89.7764 482.073 90.9613C479.411 92.1308 476.187 92.7156 472.402 92.7156C468.724 92.7156 465.531 92.1462 462.823 91.0075C460.13 89.8687 458.021 88.2068 456.498 86.0217C454.99 83.8365 454.174 81.1744 454.051 78.0352H462.476C462.599 79.6817 463.107 81.0513 464 82.1438C464.892 83.2364 466.054 84.052 467.485 84.5906C468.932 85.1291 470.547 85.3984 472.332 85.3984C474.194 85.3984 475.826 85.1214 477.226 84.5675C478.642 83.9981 479.75 83.2133 480.55 82.2131C481.35 81.1974 481.758 80.0125 481.773 78.6584C481.758 77.4273 481.396 76.4117 480.688 75.6115C479.98 74.7959 478.988 74.1188 477.711 73.5803C476.449 73.0263 474.972 72.5339 473.279 72.103L467.901 70.718C464.007 69.7178 460.93 68.2021 458.668 66.1708C456.421 64.1242 455.298 61.4081 455.298 58.0227C455.298 55.2375 456.052 52.7984 457.56 50.7056C459.083 48.6128 461.153 46.9893 463.769 45.8352C466.385 44.6657 469.347 44.081 472.656 44.081C476.01 44.081 478.949 44.6657 481.473 45.8352C484.012 46.9893 486.005 48.5974 487.451 50.6594C488.898 52.7061 489.644 55.0605 489.69 57.7227H481.45ZM83.2166 178H69.0462L90.6378 115.455H107.679L129.24 178H115.07L99.4027 129.747H98.9141L83.2166 178ZM82.331 153.415H115.803V163.738H82.331V153.415ZM136.768 178V115.455H161.811C166.412 115.455 170.25 116.137 173.324 117.501C176.399 118.865 178.709 120.758 180.257 123.181C181.804 125.584 182.578 128.353 182.578 131.488C182.578 133.931 182.089 136.079 181.112 137.932C180.135 139.764 178.791 141.271 177.081 142.452C175.391 143.612 173.457 144.437 171.278 144.925V145.536C173.66 145.638 175.89 146.31 177.966 147.552C180.063 148.794 181.763 150.535 183.066 152.774C184.369 154.993 185.021 157.64 185.021 160.714C185.021 164.033 184.196 166.996 182.547 169.602C180.918 172.187 178.506 174.233 175.309 175.74C172.113 177.247 168.173 178 163.49 178H136.768ZM149.992 167.189H160.772C164.458 167.189 167.145 166.487 168.835 165.082C170.525 163.656 171.37 161.763 171.37 159.401C171.37 157.671 170.952 156.144 170.118 154.82C169.283 153.497 168.092 152.459 166.544 151.705C165.017 150.952 163.195 150.575 161.078 150.575H149.992V167.189ZM149.992 141.627H159.795C161.607 141.627 163.216 141.312 164.62 140.68C166.046 140.029 167.165 139.113 167.98 137.932C168.815 136.751 169.232 135.336 169.232 133.687C169.232 131.427 168.428 129.605 166.819 128.22C165.231 126.836 162.971 126.143 160.039 126.143H149.992V141.627ZM193.626 178V115.455H235.77V126.357H206.849V141.261H233.602V152.163H206.849V167.097H235.893V178H193.626ZM246.284 178V115.455H270.96C275.683 115.455 279.715 116.299 283.054 117.989C286.413 119.659 288.968 122.031 290.719 125.105C292.49 128.159 293.376 131.753 293.376 135.886C293.376 140.039 292.48 143.612 290.689 146.605C288.897 149.578 286.301 151.858 282.901 153.446C279.521 155.034 275.429 155.828 270.624 155.828H254.102V145.2H268.486C271.011 145.2 273.108 144.854 274.777 144.162C276.447 143.47 277.689 142.431 278.503 141.047C279.338 139.662 279.755 137.942 279.755 135.886C279.755 133.809 279.338 132.058 278.503 130.633C277.689 129.208 276.437 128.129 274.747 127.396C273.077 126.642 270.97 126.266 268.425 126.266H259.507V178H246.284ZM280.061 149.537L295.605 178H281.007L265.799 149.537H280.061ZM300.339 126.357V115.455H351.707V126.357H332.559V178H319.488V126.357H300.339ZM363.305 178H349.134L370.726 115.455H387.767L409.328 178H395.157L379.491 129.747H379.002L363.305 178ZM362.419 153.415H395.89V163.738H362.419V153.415ZM449.358 133.442C449.114 130.979 448.065 129.065 446.212 127.701C444.36 126.337 441.845 125.655 438.669 125.655C436.511 125.655 434.689 125.96 433.202 126.571C431.716 127.161 430.576 127.986 429.782 129.045C429.008 130.103 428.621 131.305 428.621 132.648C428.581 133.768 428.815 134.746 429.324 135.58C429.853 136.415 430.576 137.138 431.492 137.749C432.408 138.339 433.467 138.858 434.668 139.306C435.87 139.734 437.152 140.1 438.516 140.406L444.136 141.749C446.864 142.36 449.368 143.174 451.648 144.192C453.929 145.21 455.904 146.463 457.573 147.949C459.243 149.435 460.536 151.186 461.452 153.202C462.388 155.217 462.867 157.528 462.887 160.134C462.867 163.962 461.889 167.281 459.955 170.09C458.041 172.879 455.272 175.048 451.648 176.595C448.045 178.122 443.698 178.886 438.608 178.886C433.559 178.886 429.161 178.112 425.415 176.565C421.689 175.017 418.777 172.727 416.68 169.693C414.604 166.639 413.514 162.862 413.413 158.363H426.209C426.351 160.46 426.952 162.211 428.011 163.616C429.09 165 430.525 166.049 432.317 166.761C434.129 167.454 436.175 167.8 438.455 167.8C440.695 167.8 442.639 167.474 444.288 166.822C445.958 166.171 447.251 165.265 448.167 164.104C449.083 162.944 449.541 161.61 449.541 160.104C449.541 158.699 449.124 157.518 448.289 156.561C447.475 155.604 446.273 154.79 444.685 154.118C443.118 153.446 441.194 152.835 438.913 152.286L432.103 150.575C426.83 149.293 422.666 147.287 419.612 144.559C416.558 141.831 415.041 138.156 415.062 133.534C415.041 129.747 416.049 126.439 418.085 123.609C420.142 120.779 422.961 118.57 426.545 116.982C430.128 115.393 434.2 114.599 438.761 114.599C443.403 114.599 447.454 115.393 450.915 116.982C454.397 118.57 457.105 120.779 459.039 123.609C460.973 126.439 461.971 129.717 462.032 133.442H449.358ZM487.082 115.455L485.891 159.249H474.714L473.492 115.455H487.082ZM480.302 178.794C478.287 178.794 476.556 178.081 475.111 176.656C473.665 175.211 472.952 173.48 472.973 171.464C472.952 169.469 473.665 167.759 475.111 166.334C476.556 164.909 478.287 164.196 480.302 164.196C482.237 164.196 483.937 164.909 485.403 166.334C486.868 167.759 487.612 169.469 487.632 171.464C487.612 172.808 487.255 174.04 486.563 175.16C485.891 176.259 485.006 177.145 483.906 177.817C482.807 178.468 481.605 178.794 480.302 178.794Z" fill="white"/>
<path d="M76.5107 237V211.545H81.1218V233.135H92.3327V237H76.5107ZM100.561 237H95.6388L104.6 211.545H110.293L119.266 237H114.344L107.546 216.766H107.347L100.561 237ZM100.722 227.02H114.146V230.723H100.722V227.02ZM138.475 219.674C138.268 219.003 137.982 218.402 137.618 217.872C137.261 217.333 136.831 216.873 136.325 216.492C135.828 216.111 135.256 215.825 134.61 215.635C133.964 215.436 133.259 215.336 132.497 215.336C131.13 215.336 129.912 215.68 128.843 216.368C127.774 217.056 126.933 218.067 126.32 219.401C125.715 220.726 125.412 222.342 125.412 224.248C125.412 226.17 125.715 227.798 126.32 229.132C126.925 230.467 127.766 231.482 128.843 232.178C129.92 232.865 131.171 233.209 132.596 233.209C133.889 233.209 135.008 232.961 135.952 232.463C136.905 231.966 137.638 231.262 138.152 230.35C138.666 229.431 138.923 228.354 138.923 227.119L139.967 227.281H133.056V223.676H143.385V226.734C143.385 228.913 142.921 230.798 141.993 232.389C141.065 233.98 139.789 235.206 138.165 236.068C136.541 236.921 134.676 237.348 132.572 237.348C130.227 237.348 128.168 236.822 126.394 235.77C124.629 234.709 123.25 233.205 122.256 231.258C121.269 229.302 120.776 226.982 120.776 224.298C120.776 222.243 121.066 220.407 121.646 218.792C122.235 217.176 123.055 215.804 124.107 214.678C125.16 213.542 126.394 212.681 127.811 212.092C129.228 211.496 130.769 211.197 132.435 211.197C133.843 211.197 135.157 211.405 136.375 211.819C137.593 212.225 138.674 212.805 139.619 213.559C140.572 214.313 141.355 215.208 141.968 216.244C142.581 217.279 142.983 218.423 143.173 219.674H138.475ZM170.589 224.273C170.589 227.015 170.075 229.364 169.047 231.32C168.028 233.267 166.636 234.759 164.871 235.794C163.115 236.83 161.122 237.348 158.893 237.348C156.664 237.348 154.667 236.83 152.902 235.794C151.146 234.75 149.754 233.255 148.726 231.308C147.707 229.352 147.197 227.007 147.197 224.273C147.197 221.53 147.707 219.185 148.726 217.238C149.754 215.282 151.146 213.787 152.902 212.751C154.667 211.715 156.664 211.197 158.893 211.197C161.122 211.197 163.115 211.715 164.871 212.751C166.636 213.787 168.028 215.282 169.047 217.238C170.075 219.185 170.589 221.53 170.589 224.273ZM165.953 224.273C165.953 222.342 165.65 220.714 165.045 219.388C164.449 218.054 163.62 217.047 162.56 216.368C161.499 215.68 160.277 215.336 158.893 215.336C157.509 215.336 156.287 215.68 155.226 216.368C154.166 217.047 153.333 218.054 152.728 219.388C152.132 220.714 151.833 222.342 151.833 224.273C151.833 226.203 152.132 227.836 152.728 229.17C153.333 230.496 154.166 231.502 155.226 232.19C156.287 232.869 157.509 233.209 158.893 233.209C160.277 233.209 161.499 232.869 162.56 232.19C163.62 231.502 164.449 230.496 165.045 229.17C165.65 227.836 165.953 226.203 165.953 224.273ZM176.85 237H171.928L180.889 211.545H186.582L195.555 237H190.634L183.835 216.766H183.636L176.85 237ZM177.011 227.02H190.435V230.723H177.011V227.02ZM221.423 218.543C221.307 217.458 220.818 216.612 219.957 216.007C219.103 215.403 217.993 215.1 216.626 215.1C215.664 215.1 214.84 215.245 214.152 215.535C213.465 215.825 212.938 216.219 212.574 216.716C212.209 217.213 212.023 217.781 212.014 218.419C212.014 218.949 212.135 219.409 212.375 219.798C212.623 220.188 212.959 220.519 213.382 220.793C213.804 221.058 214.272 221.281 214.786 221.464C215.3 221.646 215.818 221.799 216.34 221.924L218.726 222.52C219.687 222.744 220.611 223.046 221.498 223.428C222.393 223.809 223.192 224.289 223.897 224.869C224.609 225.449 225.173 226.15 225.587 226.97C226.001 227.79 226.208 228.751 226.208 229.853C226.208 231.345 225.827 232.658 225.065 233.793C224.303 234.92 223.201 235.803 221.759 236.441C220.325 237.07 218.589 237.385 216.551 237.385C214.571 237.385 212.851 237.079 211.393 236.466C209.943 235.852 208.808 234.958 207.987 233.781C207.175 232.604 206.736 231.171 206.67 229.48H211.207C211.273 230.367 211.546 231.105 212.027 231.693C212.507 232.281 213.133 232.72 213.904 233.01C214.683 233.3 215.553 233.445 216.514 233.445C217.516 233.445 218.395 233.296 219.149 232.998C219.911 232.691 220.508 232.269 220.938 231.73C221.369 231.183 221.589 230.545 221.597 229.816C221.589 229.153 221.394 228.606 221.013 228.175C220.632 227.736 220.097 227.372 219.41 227.082C218.73 226.783 217.935 226.518 217.023 226.286L214.127 225.54C212.031 225.002 210.374 224.186 209.156 223.092C207.946 221.99 207.341 220.527 207.341 218.705C207.341 217.205 207.747 215.891 208.559 214.765C209.38 213.638 210.494 212.763 211.903 212.142C213.311 211.512 214.906 211.197 216.688 211.197C218.494 211.197 220.077 211.512 221.436 212.142C222.803 212.763 223.876 213.629 224.655 214.74C225.434 215.842 225.835 217.109 225.86 218.543H221.423ZM233.178 237H228.256L237.217 211.545H242.91L251.884 237H246.962L240.163 216.766H239.964L233.178 237ZM233.339 227.02H246.763V230.723H233.339V227.02ZM276.154 211.545V237H272.053L260.059 219.662H259.847V237H255.236V211.545H259.363L271.344 228.896H271.568V211.545H276.154ZM280.06 215.411V211.545H300.369V215.411H292.501V237H287.928V215.411H280.06ZM304.477 237H299.555L308.516 211.545H314.209L323.182 237H318.26L311.462 216.766H311.263L304.477 237ZM304.638 227.02H318.062V230.723H304.638V227.02ZM335.217 237V211.545H351.772V215.411H339.828V222.321H350.915V226.187H339.828V233.135H351.872V237H335.217ZM365.158 237V211.545H374.704C376.659 211.545 378.3 211.885 379.625 212.565C380.959 213.244 381.966 214.197 382.646 215.423C383.333 216.641 383.677 218.062 383.677 219.686C383.677 221.319 383.329 222.736 382.633 223.937C381.946 225.13 380.93 226.054 379.588 226.709C378.246 227.355 376.597 227.678 374.641 227.678H367.843V223.85H374.02C375.163 223.85 376.1 223.693 376.829 223.378C377.558 223.055 378.097 222.587 378.445 221.973C378.801 221.352 378.979 220.59 378.979 219.686C378.979 218.783 378.801 218.013 378.445 217.375C378.088 216.728 377.546 216.239 376.816 215.908C376.087 215.568 375.147 215.398 373.995 215.398H369.769V237H365.158ZM378.308 225.466L384.609 237H379.464L373.274 225.466H378.308ZM387.922 237V211.545H404.477V215.411H392.533V222.321H403.62V226.187H392.533V233.135H404.577V237H387.922ZM426.234 219.674C426.027 219.003 425.741 218.402 425.377 217.872C425.02 217.333 424.589 216.873 424.084 216.492C423.587 216.111 423.015 215.825 422.369 215.635C421.722 215.436 421.018 215.336 420.256 215.336C418.889 215.336 417.671 215.68 416.602 216.368C415.533 217.056 414.692 218.067 414.079 219.401C413.474 220.726 413.171 222.342 413.171 224.248C413.171 226.17 413.474 227.798 414.079 229.132C414.683 230.467 415.524 231.482 416.602 232.178C417.679 232.865 418.93 233.209 420.355 233.209C421.648 233.209 422.766 232.961 423.711 232.463C424.664 231.966 425.397 231.262 425.911 230.35C426.425 229.431 426.682 228.354 426.682 227.119L427.726 227.281H420.815V223.676H431.144V226.734C431.144 228.913 430.68 230.798 429.752 232.389C428.823 233.98 427.547 235.206 425.923 236.068C424.299 236.921 422.435 237.348 420.33 237.348C417.985 237.348 415.926 236.822 414.153 235.77C412.388 234.709 411.009 233.205 410.014 231.258C409.028 229.302 408.535 226.982 408.535 224.298C408.535 222.243 408.825 220.407 409.405 218.792C409.994 217.176 410.814 215.804 411.866 214.678C412.919 213.542 414.153 212.681 415.57 212.092C416.987 211.496 418.528 211.197 420.194 211.197C421.602 211.197 422.916 211.405 424.134 211.819C425.352 212.225 426.433 212.805 427.378 213.559C428.33 214.313 429.113 215.208 429.727 216.244C430.34 217.279 430.742 218.423 430.932 219.674H426.234ZM440.214 211.545V237H435.602V211.545H440.214ZM448.476 237H443.554L452.515 211.545H458.208L467.181 237H462.259L455.461 216.766H455.262L448.476 237ZM448.637 227.02H462.061V230.723H448.637V227.02ZM451.72 209.035L448.985 208.973C448.985 207.498 449.367 206.342 450.129 205.505C450.899 204.668 451.84 204.25 452.95 204.25C453.489 204.25 453.957 204.341 454.355 204.523C454.761 204.697 455.129 204.9 455.461 205.132C455.792 205.364 456.12 205.571 456.443 205.754C456.766 205.928 457.122 206.015 457.512 206.015C457.984 206.015 458.357 205.836 458.63 205.48C458.912 205.124 459.057 204.668 459.065 204.113L461.737 204.225C461.729 205.708 461.344 206.86 460.582 207.68C459.819 208.492 458.887 208.902 457.785 208.911C457.18 208.911 456.675 208.824 456.269 208.65C455.863 208.467 455.506 208.26 455.2 208.028C454.902 207.796 454.599 207.593 454.293 207.419C453.986 207.237 453.626 207.146 453.211 207.146C452.772 207.146 452.412 207.32 452.13 207.668C451.856 208.016 451.72 208.471 451.72 209.035ZM492.083 224.273C492.083 227.015 491.569 229.364 490.542 231.32C489.522 233.267 488.13 234.759 486.366 235.794C484.609 236.83 482.616 237.348 480.387 237.348C478.158 237.348 476.161 236.83 474.396 235.794C472.64 234.75 471.248 233.255 470.22 231.308C469.201 229.352 468.691 227.007 468.691 224.273C468.691 221.53 469.201 219.185 470.22 217.238C471.248 215.282 472.64 213.787 474.396 212.751C476.161 211.715 478.158 211.197 480.387 211.197C482.616 211.197 484.609 211.715 486.366 212.751C488.13 213.787 489.522 215.282 490.542 217.238C491.569 219.185 492.083 221.53 492.083 224.273ZM487.447 224.273C487.447 222.342 487.144 220.714 486.54 219.388C485.943 218.054 485.114 217.047 484.054 216.368C482.993 215.68 481.771 215.336 480.387 215.336C479.003 215.336 477.781 215.68 476.721 216.368C475.66 217.047 474.827 218.054 474.222 219.388C473.626 220.714 473.328 222.342 473.328 224.273C473.328 226.203 473.626 227.836 474.222 229.17C474.827 230.496 475.66 231.502 476.721 232.19C477.781 232.869 479.003 233.209 480.387 233.209C481.771 233.209 482.993 232.869 484.054 232.19C485.114 231.502 485.943 230.496 486.54 229.17C487.144 227.836 487.447 226.203 487.447 224.273ZM501.749 211.545L501.339 229.518H497.337L496.939 211.545H501.749ZM499.338 237.273C498.584 237.273 497.938 237.008 497.399 236.478C496.869 235.948 496.604 235.301 496.604 234.539C496.604 233.793 496.869 233.155 497.399 232.625C497.938 232.095 498.584 231.83 499.338 231.83C500.076 231.83 500.714 232.095 501.252 232.625C501.799 233.155 502.073 233.793 502.073 234.539C502.073 235.045 501.944 235.504 501.687 235.919C501.439 236.333 501.107 236.664 500.693 236.913C500.287 237.153 499.835 237.273 499.338 237.273Z" fill="white"/>
</svg>
