<svg width="726" height="1413" viewBox="0 0 726 1413" fill="none" xmlns="http://www.w3.org/2000/svg">
<g opacity="0.3">
<path fill-rule="evenodd" clip-rule="evenodd" d="M428.235 1412.48H1074.9L937.223 1103.13H561.746L428.235 1412.48Z" fill="#1A9BA2" fill-opacity="0.4"/>
<path fill-rule="evenodd" clip-rule="evenodd" d="M6.8584 1412.48L111.165 1178.38C111.165 1178.38 146.441 1107.31 194.602 1107.31C242.763 1107.31 465.782 1107.31 465.782 1107.31L357.317 1362.31C357.317 1362.31 335.776 1411.37 298.909 1412.48C262.032 1413.58 6.8584 1412.48 6.8584 1412.48Z" fill="#088B36" fill-opacity="0.4"/>
<path fill-rule="evenodd" clip-rule="evenodd" d="M186.259 1011.16H507.504L691.072 597.306L515.847 283.78L186.259 1011.16Z" fill="#088B36" fill-opacity="0.4"/>
<path opacity="0.2" fill-rule="evenodd" clip-rule="evenodd" d="M574.255 154.187L515.847 279.595L641.015 505.335L695.247 392.465L574.255 154.187Z" fill="#088B36" fill-opacity="0.4"/>
<path fill-rule="evenodd" clip-rule="evenodd" d="M574.255 154.187L599.293 91.4873H937.223L1538 1412.48H1200.06C1200.06 1412.48 1180.59 1405.78 1162.51 1362.31C1132.17 1302.38 574.255 154.187 574.255 154.187Z" fill="black" fill-opacity="0.4"/>
<path opacity="0.2" fill-rule="evenodd" clip-rule="evenodd" d="M599.292 91.4873H937.223C937.223 91.4873 902.028 8.39751 866.296 7.87882C830.574 7.36012 657.701 7.87882 657.701 7.87882C657.701 7.87882 620.574 29.6462 599.292 91.4873Z" fill="black" fill-opacity="0.4"/>
</g>
</svg>
