<svg width="345" height="279" viewBox="0 0 345 279" fill="none" xmlns="http://www.w3.org/2000/svg">
<rect x="1" y="33.2249" width="343" height="244.775" rx="9" stroke="#53A668" stroke-width="2"/>
<rect x="135" width="75" height="63.6018" rx="8" fill="#53A668"/>
<g clip-path="url(#clip0_2012_216)">
<path d="M198 19.5833V21.6667H148V19.5833C148 13.8312 152.665 9.16667 158.417 9.16667H160.5V7.08333C160.5 5.93333 161.433 5 162.583 5C163.733 5 164.667 5.93333 164.667 7.08333V9.16667H181.333V7.08333C181.333 5.93333 182.267 5 183.417 5C184.567 5 185.5 5.93333 185.5 7.08333V9.16667H187.583C193.335 9.16667 198 13.8312 198 19.5833ZM198 40.4167C198 48.4583 191.456 55 183.417 55C175.377 55 168.833 48.4583 168.833 40.4167C168.833 32.375 175.377 25.8333 183.417 25.8333C191.456 25.8333 198 32.375 198 40.4167ZM187.583 41.6375L185.5 39.5542V36.25C185.5 35.1 184.567 34.1667 183.417 34.1667C182.267 34.1667 181.333 35.1 181.333 36.25V40.4167C181.333 40.9687 181.552 41.5 181.944 41.8896L184.637 44.5833C185.45 45.3958 186.771 45.3958 187.583 44.5833C188.396 43.7708 188.396 42.45 187.583 41.6375ZM164.667 40.4167C164.667 34.5229 167.392 29.2708 171.644 25.8333H148V44.5833C148 50.3354 152.665 55 158.417 55H171.644C167.392 51.5625 164.667 46.3104 164.667 40.4167Z" fill="#F2F2F2"/>
</g>
<defs>
<clipPath id="clip0_2012_216">
<rect width="50" height="50" fill="white" transform="translate(148 5)"/>
</clipPath>
</defs>
</svg>
