<svg width="345" height="279" viewBox="0 0 345 279" fill="none" xmlns="http://www.w3.org/2000/svg">
<rect x="1" y="33.2249" width="343" height="244.775" rx="9" stroke="#5397A6" stroke-width="2"/>
<rect x="135" width="75" height="63.6018" rx="8" fill="#5397A6"/>
<path d="M148 25.7313V44.5C148.007 50.2501 152.667 54.9098 158.417 54.9167H187.583C193.333 54.9098 197.993 50.2501 198 44.5V25.5L148 25.7313Z" fill="#F2F2F2"/>
<path d="M187.583 13.25H173.983C173.661 13.2521 173.343 13.1809 173.052 13.0417L166.477 9.7417C165.609 9.30947 164.653 9.08418 163.683 9.0834H158.417C152.667 9.09023 148.007 13.7499 148 19.5V21.5646L197.715 21.3333C196.629 16.6102 192.43 13.2597 187.583 13.25Z" fill="#F2F2F2"/>
</svg>
