<svg width="345" height="279" viewBox="0 0 345 279" fill="none" xmlns="http://www.w3.org/2000/svg">
<rect x="1" y="33.2249" width="343" height="244.775" rx="9" stroke="#088C29" stroke-width="2"/>
<rect x="135" width="75" height="63.6018" rx="8" fill="#088C29"/>
<g clip-path="url(#clip0_2012_208)">
<path d="M150 14.6251V47.6457L172.5 54.0751L195 47.6457V16.5001C195 14.7188 194.184 13.082 192.761 12.0095C192.294 11.657 191.781 11.417 191.25 11.2257V44.8182L172.5 50.1751L153.75 44.8182V9.35071C153.219 9.54196 152.704 9.78196 152.239 10.1345C150.816 11.207 150 12.8438 150 14.6251ZM170.625 15.3207V42.0638L172.5 42.6001L174.375 42.0638V15.3207C174.375 12.8232 176.053 10.5976 178.596 9.87759L181.725 9.12946C184.671 8.42634 187.5 10.6613 187.5 13.6895V42.2138L172.5 46.5001L157.5 42.2138V13.7532C157.5 10.7588 160.269 8.53134 163.194 9.17446L166.547 9.91134C168.949 10.5976 170.627 12.8232 170.627 15.3207H170.625Z" fill="#F2F2F2"/>
</g>
<defs>
<clipPath id="clip0_2012_208">
<rect width="45" height="45" fill="white" transform="matrix(-1 0 0 1 195 9)"/>
</clipPath>
</defs>
</svg>
