<svg width="345" height="279" viewBox="0 0 345 279" fill="none" xmlns="http://www.w3.org/2000/svg">
<rect x="1" y="33.2249" width="343" height="244.775" rx="9" stroke="#1CA6A6" stroke-width="2"/>
<rect x="135" width="75" height="63.6018" rx="8" fill="#1CA6A6"/>
<g clip-path="url(#clip0_2012_234)">
<path d="M178.811 39.6608C192.227 39.5934 197 32.4884 197 26.3961C197 22.9722 194.575 20.1078 191.355 19.4156C191.632 18.6276 191.873 17.9028 192.035 17.3536C192.755 14.9179 192.29 12.3454 190.757 10.2935C189.193 8.20282 186.802 7.00232 184.195 7.00232H160.803C158.196 7.00232 155.803 8.20282 154.239 10.2935C152.706 12.3454 152.241 14.9199 152.961 17.3536C153.125 17.9028 153.363 18.6276 153.643 19.4177C150.423 20.1098 148 22.9743 148 26.3981C148 32.4905 152.775 39.5955 166.189 39.6629C166.304 40.2794 166.375 40.9083 166.375 41.5494V47.8357C166.375 51.5637 163.239 51.9027 162.292 51.919H160.25C159.121 51.919 158.208 52.8316 158.208 53.9607C158.208 55.0897 159.121 56.0023 160.25 56.0023H184.75C185.879 56.0023 186.792 55.0897 186.792 53.9607C186.792 52.8316 185.879 51.919 184.75 51.919H182.725C181.761 51.9027 178.625 51.5637 178.625 47.8357V41.5473C178.625 40.9083 178.696 40.2794 178.811 39.6629V39.6608ZM189.756 23.3132C189.791 23.3132 189.819 23.3336 189.854 23.3336C191.543 23.3336 192.917 24.7076 192.917 26.3961C192.917 30.5489 189.632 34.965 180.593 35.5224C181.044 34.9119 181.561 34.3464 182.149 33.8461C185.699 30.8286 188.137 26.7963 189.756 23.3132ZM152.083 26.3961C152.083 24.7076 153.457 23.3336 155.146 23.3336C155.181 23.3336 155.209 23.3152 155.242 23.3132C156.863 26.7963 159.301 30.8286 162.851 33.8461C163.439 34.3464 163.956 34.9099 164.407 35.5224C155.368 34.965 152.083 30.5489 152.083 26.3961ZM167.992 26.9331C167.453 26.5615 167.226 25.8755 167.441 25.2548L168.5 21.9759L165.711 19.9342C165.044 19.4442 164.899 18.5071 165.389 17.8395C165.671 17.4556 166.12 17.227 166.596 17.227H170.028L171.071 13.9746C171.334 13.1845 172.188 12.7598 172.978 13.0232C173.427 13.1722 173.78 13.5254 173.929 13.9746L174.97 17.227H178.402C179.229 17.227 179.901 17.8966 179.901 18.7256C179.901 19.2054 179.672 19.6545 179.287 19.9363L176.498 21.9779L177.557 25.2569C177.81 26.0449 177.378 26.8902 176.587 27.1454C176.13 27.2924 175.63 27.2107 175.242 26.9269L172.5 24.9098L169.756 26.9249C169.233 27.3149 168.519 27.3169 167.992 26.9331Z" fill="#F2F2F2"/>
</g>
<defs>
<clipPath id="clip0_2012_234">
<rect width="49" height="49" fill="white" transform="translate(148 7)"/>
</clipPath>
</defs>
</svg>
