<svg width="75" height="64" viewBox="0 0 75 64" fill="none" xmlns="http://www.w3.org/2000/svg">
<rect width="75" height="63.6018" rx="8" fill="#53A668"/>
<g clip-path="url(#clip0_2041_203)">
<path d="M63 19.5833V21.6667H13V19.5833C13 13.8313 17.6646 9.16667 23.4167 9.16667H25.5V7.08333C25.5 5.93333 26.4333 5 27.5833 5C28.7333 5 29.6667 5.93333 29.6667 7.08333V9.16667H46.3333V7.08333C46.3333 5.93333 47.2667 5 48.4167 5C49.5667 5 50.5 5.93333 50.5 7.08333V9.16667H52.5833C58.3354 9.16667 63 13.8313 63 19.5833ZM63 40.4167C63 48.4583 56.4562 55 48.4167 55C40.3771 55 33.8333 48.4583 33.8333 40.4167C33.8333 32.375 40.3771 25.8333 48.4167 25.8333C56.4562 25.8333 63 32.375 63 40.4167ZM52.5833 41.6375L50.5 39.5542V36.25C50.5 35.1 49.5667 34.1667 48.4167 34.1667C47.2667 34.1667 46.3333 35.1 46.3333 36.25V40.4167C46.3333 40.9688 46.5521 41.5 46.9437 41.8896L49.6375 44.5833C50.45 45.3958 51.7708 45.3958 52.5833 44.5833C53.3958 43.7708 53.3958 42.45 52.5833 41.6375ZM29.6667 40.4167C29.6667 34.5229 32.3917 29.2708 36.6437 25.8333H13V44.5833C13 50.3354 17.6646 55 23.4167 55H36.6437C32.3917 51.5625 29.6667 46.3104 29.6667 40.4167Z" fill="#F2F2F2"/>
</g>
<defs>
<clipPath id="clip0_2041_203">
<rect width="50" height="50" fill="white" transform="translate(13 5)"/>
</clipPath>
</defs>
</svg>
