<svg width="75" height="64" viewBox="0 0 75 64" fill="none" xmlns="http://www.w3.org/2000/svg">
<rect width="75" height="63.6018" rx="8" fill="#1CA6A6"/>
<g clip-path="url(#clip0_2041_205)">
<path d="M43.8108 39.6608C57.2266 39.5934 62 32.4884 62 26.3961C62 22.9722 59.5745 20.1078 56.3548 19.4156C56.6325 18.6276 56.8734 17.9028 57.0347 17.3536C57.7554 14.9179 57.2899 12.3454 55.7566 10.2935C54.1927 8.20282 51.8019 7.00232 49.1947 7.00232H25.8033C23.1961 7.00232 20.8033 8.20282 19.2393 10.2935C17.706 12.3454 17.2405 14.9199 17.9613 17.3536C18.1246 17.9028 18.3635 18.6276 18.6432 19.4177C15.4235 20.1098 13 22.9743 13 26.3981C13 32.4905 17.7755 39.5955 31.1892 39.6629C31.3035 40.2794 31.375 40.9083 31.375 41.5494V47.8357C31.375 51.5637 28.239 51.9026 27.2917 51.919H25.25C24.121 51.919 23.2083 52.8316 23.2083 53.9607C23.2083 55.0897 24.121 56.0023 25.25 56.0023H49.75C50.879 56.0023 51.7917 55.0897 51.7917 53.9607C51.7917 52.8316 50.879 51.919 49.75 51.919H47.7247C46.761 51.9026 43.625 51.5637 43.625 47.8357V41.5473C43.625 40.9083 43.6965 40.2794 43.8108 39.6629V39.6608ZM54.7562 23.3132C54.7909 23.3132 54.8195 23.3336 54.8542 23.3336C56.5426 23.3336 57.9167 24.7076 57.9167 26.3961C57.9167 30.5489 54.6316 34.965 45.5932 35.5224C46.0444 34.9119 46.5609 34.3464 47.1489 33.8461C50.6994 30.8286 53.1371 26.7963 54.7562 23.3132ZM17.0833 26.3961C17.0833 24.7076 18.4574 23.3336 20.1458 23.3336C20.1805 23.3336 20.2091 23.3152 20.2418 23.3132C21.8629 26.7963 24.3006 30.8286 27.8511 33.8461C28.4391 34.3464 28.9556 34.9099 29.4068 35.5224C20.3684 34.965 17.0833 30.5489 17.0833 26.3961ZM32.992 26.9331C32.453 26.5615 32.2264 25.8755 32.4408 25.2548L33.5004 21.9759L30.7115 19.9342C30.0438 19.4442 29.8989 18.5071 30.3889 17.8395C30.6706 17.4556 31.1198 17.227 31.5955 17.227H35.0275L36.0708 13.9746C36.3342 13.1845 37.1876 12.7598 37.9778 13.0232C38.4269 13.1722 38.7801 13.5254 38.9292 13.9746L39.9704 17.227H43.4025C44.2293 17.227 44.901 17.8966 44.901 18.7256C44.901 19.2054 44.6724 19.6545 44.2865 19.9363L41.4976 21.9779L42.5572 25.2569C42.8104 26.0449 42.3775 26.8902 41.5874 27.1454C41.1301 27.2924 40.6299 27.2107 40.242 26.9269L37.5 24.9098L34.756 26.9249C34.2333 27.3149 33.5188 27.3169 32.992 26.9331Z" fill="#F2F2F2"/>
</g>
<defs>
<clipPath id="clip0_2041_205">
<rect width="49" height="49" fill="white" transform="translate(13 7)"/>
</clipPath>
</defs>
</svg>
