<svg width="75" height="64" viewBox="0 0 75 64" fill="none" xmlns="http://www.w3.org/2000/svg">
<rect width="75" height="63.6018" rx="8" fill="#088C29"/>
<g clip-path="url(#clip0_2041_202)">
<path d="M15 14.6251V47.6457L37.5 54.0751L60 47.6457V16.5001C60 14.7188 59.1844 13.082 57.7613 12.0095C57.2944 11.657 56.7806 11.417 56.25 11.2257V44.8182L37.5 50.1751L18.75 44.8182V9.35071C18.2194 9.54196 17.7038 9.78196 17.2388 10.1345C15.8156 11.207 15 12.8438 15 14.6251ZM35.625 15.3207V42.0638L37.5 42.6001L39.375 42.0638V15.3207C39.375 12.8232 41.0531 10.5976 43.5956 9.87759L46.725 9.12946C49.6706 8.42634 52.5 10.6613 52.5 13.6895V42.2138L37.5 46.5001L22.5 42.2138V13.7532C22.5 10.7588 25.2694 8.53134 28.1944 9.17446L31.5469 9.91134C33.9487 10.5976 35.6269 12.8232 35.6269 15.3207H35.625Z" fill="#F2F2F2"/>
</g>
<defs>
<clipPath id="clip0_2041_202">
<rect width="45" height="45" fill="white" transform="matrix(-1 0 0 1 60 9)"/>
</clipPath>
</defs>
</svg>
