<svg width="220" height="201" viewBox="0 0 220 201" fill="none" xmlns="http://www.w3.org/2000/svg">
<path fill-rule="evenodd" clip-rule="evenodd" d="M61.257 200.925H153.757L134.064 156.684H80.354L61.257 200.925Z" fill="#1A9BA2"/>
<path fill-rule="evenodd" clip-rule="evenodd" d="M0.982056 200.925L15.9021 167.446C15.9021 167.446 20.9481 157.282 27.8371 157.282C34.7261 157.282 66.6281 157.282 66.6281 157.282L51.1121 193.751C51.1121 193.751 48.0311 200.767 42.7571 200.925C37.4831 201.084 0.982056 200.925 0.982056 200.925Z" fill="#088B36"/>
<path fill-rule="evenodd" clip-rule="evenodd" d="M26.644 143.532H72.596L98.854 84.344L73.789 39.505L26.644 143.532Z" fill="#088B36"/>
<path opacity="0.2" fill-rule="evenodd" clip-rule="evenodd" d="M82.1441 20.972L73.7891 38.907L91.6931 71.192L99.4511 55.049L82.1441 20.972Z" fill="#088B36"/>
<path fill-rule="evenodd" clip-rule="evenodd" d="M82.144 20.972L85.725 12.004H134.064L219.1 200.925H171.661C171.661 200.925 168.876 199.968 166.29 193.751C161.95 185.181 82.144 20.972 82.144 20.972Z" fill="black"/>
<path opacity="0.2" fill-rule="evenodd" clip-rule="evenodd" d="M85.725 12.004H134.064C134.064 12.004 129.029 0.121049 123.919 0.047049C118.808 -0.026951 94.08 0.047049 94.08 0.047049C94.08 0.047049 88.77 3.16105 85.725 12.004Z" fill="black"/>
</svg>
