<svg width="712" height="201" viewBox="0 0 712 201" fill="none" xmlns="http://www.w3.org/2000/svg">
<g clip-path="url(#clip0_2012_384)">
<path fill-rule="evenodd" clip-rule="evenodd" d="M61.257 200.925H153.757L134.064 156.684H80.354L61.257 200.925Z" fill="#1A9BA2"/>
<path fill-rule="evenodd" clip-rule="evenodd" d="M0.982056 200.925L15.9021 167.446C15.9021 167.446 20.9481 157.282 27.8371 157.282C34.7261 157.282 66.6281 157.282 66.6281 157.282L51.1121 193.751C51.1121 193.751 48.0311 200.767 42.7571 200.925C37.4831 201.084 0.982056 200.925 0.982056 200.925Z" fill="#088B36"/>
<path fill-rule="evenodd" clip-rule="evenodd" d="M26.644 143.532H72.596L98.854 84.344L73.789 39.505L26.644 143.532Z" fill="#088B36"/>
<path opacity="0.2" fill-rule="evenodd" clip-rule="evenodd" d="M82.1441 20.972L73.7891 38.907L91.6931 71.192L99.4511 55.049L82.1441 20.972Z" fill="#088B36"/>
<path fill-rule="evenodd" clip-rule="evenodd" d="M82.144 20.972L85.725 12.004H134.064L219.1 200.925H171.661C171.661 200.925 168.876 199.968 166.29 193.751C161.95 185.181 82.144 20.972 82.144 20.972Z" fill="black"/>
<path opacity="0.2" fill-rule="evenodd" clip-rule="evenodd" d="M85.725 12.004H134.064C134.064 12.004 129.029 0.121049 123.919 0.047049C118.808 -0.026951 94.08 0.047049 94.08 0.047049C94.08 0.047049 88.77 3.16105 85.725 12.004Z" fill="black"/>
<path d="M282.593 157H255.86L296.593 39.0081H328.741L369.416 157H342.683L313.128 65.9711H312.206L282.593 157ZM280.922 110.621H344.066V130.095H280.922V110.621ZM303.852 27.6007L316.066 1.38663H338.766L321.194 27.6007H303.852ZM383.157 190.185V68.5061H407.354V83.3703H408.449C409.524 80.9889 411.08 78.5692 413.115 76.111C415.19 73.6144 417.878 71.5404 421.181 69.8888C424.523 68.1988 428.671 67.3538 433.626 67.3538C440.078 67.3538 446.032 69.0438 451.486 72.4238C456.94 75.7653 461.299 80.8161 464.564 87.576C467.829 94.2976 469.461 102.728 469.461 112.868C469.461 122.739 467.867 131.074 464.679 137.872C461.53 144.632 457.228 149.76 451.774 153.255C446.358 156.712 440.29 158.44 433.568 158.44C428.805 158.44 424.753 157.653 421.412 156.078C418.109 154.503 415.401 152.525 413.288 150.144C411.176 147.724 409.563 145.285 408.449 142.827H407.7V190.185H383.157ZM407.181 112.753C407.181 118.015 407.911 122.605 409.371 126.523C410.83 130.44 412.943 133.494 415.708 135.683C418.473 137.834 421.834 138.909 425.79 138.909C429.785 138.909 433.165 137.815 435.93 135.625C438.696 133.398 440.789 130.325 442.21 126.407C443.67 122.451 444.399 117.9 444.399 112.753C444.399 107.645 443.689 103.151 442.268 99.2715C440.847 95.3922 438.753 92.3579 435.988 90.1686C433.222 87.9793 429.823 86.8847 425.79 86.8847C421.796 86.8847 418.416 87.9409 415.65 90.0534C412.923 92.1659 410.83 95.1618 409.371 99.0411C407.911 102.92 407.181 107.491 407.181 112.753ZM485.823 157V68.5061H510.367V157H485.823ZM498.153 57.0986C494.504 57.0986 491.373 55.8888 488.762 53.469C486.188 51.0108 484.902 48.0726 484.902 44.6542C484.902 41.2742 486.188 38.3743 488.762 35.9546C491.373 33.4964 494.504 32.2673 498.153 32.2673C501.801 32.2673 504.913 33.4964 507.486 35.9546C510.098 38.3743 511.404 41.2742 511.404 44.6542C511.404 48.0726 510.098 51.0108 507.486 53.469C504.913 55.8888 501.801 57.0986 498.153 57.0986ZM570.011 158.728C560.946 158.728 553.149 156.808 546.62 152.967C540.129 149.088 535.135 143.711 531.64 136.835C528.183 129.96 526.455 122.048 526.455 113.099C526.455 104.034 528.203 96.0836 531.698 89.2468C535.231 82.3716 540.244 77.0136 546.735 73.1727C553.226 69.2934 560.946 67.3538 569.895 67.3538C577.616 67.3538 584.376 68.7557 590.175 71.5596C595.975 74.3634 600.565 78.3003 603.945 83.3703C607.325 88.4402 609.188 94.3936 609.533 101.23H586.373C585.72 96.8134 583.992 93.2605 581.188 90.5719C578.422 87.8449 574.793 86.4814 570.299 86.4814C566.496 86.4814 563.174 87.5184 560.332 89.5925C557.528 91.6282 555.339 94.6049 553.764 98.5226C552.189 102.44 551.402 107.184 551.402 112.753C551.402 118.399 552.17 123.2 553.706 127.156C555.281 131.112 557.489 134.128 560.332 136.202C563.174 138.276 566.496 139.313 570.299 139.313C573.103 139.313 575.618 138.737 577.846 137.584C580.112 136.432 581.975 134.761 583.435 132.572C584.933 130.344 585.912 127.675 586.373 124.564H609.533C609.149 131.324 607.306 137.277 604.003 142.424C600.738 147.532 596.225 151.527 590.463 154.407C584.702 157.288 577.885 158.728 570.011 158.728ZM665.577 158.728C656.474 158.728 648.638 156.885 642.07 153.198C635.541 149.472 630.509 144.21 626.976 137.411C623.442 130.575 621.675 122.49 621.675 113.156C621.675 104.053 623.442 96.0644 626.976 89.1892C630.509 82.314 635.483 76.956 641.898 73.1151C648.35 69.2742 655.917 67.3538 664.597 67.3538C670.435 67.3538 675.87 68.2948 680.902 70.1768C685.972 72.0205 690.389 74.8051 694.153 78.5308C697.955 82.2564 700.913 86.9423 703.025 92.5884C705.138 98.1961 706.194 104.764 706.194 112.292V119.033H631.47V103.823H683.091C683.091 100.289 682.323 97.159 680.787 94.432C679.25 91.705 677.119 89.5733 674.392 88.0369C671.703 86.4622 668.573 85.6748 665.001 85.6748C661.275 85.6748 657.972 86.539 655.091 88.2674C652.249 89.9574 650.021 92.2427 648.408 95.1234C646.795 97.9656 645.969 101.134 645.931 104.63V119.09C645.931 123.469 646.737 127.252 648.35 130.44C650.002 133.628 652.326 136.086 655.322 137.815C658.317 139.543 661.87 140.407 665.98 140.407C668.707 140.407 671.204 140.023 673.47 139.255C675.736 138.487 677.675 137.335 679.289 135.798C680.902 134.262 682.131 132.38 682.976 130.152L705.676 131.65C704.523 137.104 702.161 141.867 698.589 145.938C695.055 149.971 690.485 153.121 684.877 155.387C679.308 157.615 672.874 158.728 665.577 158.728Z" fill="black"/>
<path d="M602.147 183.492H597.481C597.396 182.889 597.222 182.352 596.959 181.884C596.696 181.408 596.359 181.003 595.947 180.669C595.535 180.335 595.059 180.08 594.519 179.902C593.987 179.725 593.408 179.636 592.783 179.636C591.653 179.636 590.67 179.916 589.832 180.477C588.994 181.031 588.344 181.841 587.882 182.906C587.42 183.965 587.19 185.25 587.19 186.763C587.19 188.318 587.42 189.625 587.882 190.683C588.351 191.742 589.004 192.541 589.842 193.08C590.68 193.62 591.65 193.89 592.751 193.89C593.369 193.89 593.94 193.808 594.466 193.645C594.999 193.482 595.471 193.244 595.883 192.931C596.295 192.612 596.636 192.225 596.906 191.77C597.183 191.315 597.374 190.797 597.481 190.215L602.147 190.236C602.026 191.237 601.724 192.203 601.241 193.134C600.766 194.057 600.123 194.884 599.313 195.616C598.511 196.34 597.552 196.916 596.437 197.342C595.329 197.761 594.075 197.97 592.676 197.97C590.73 197.97 588.99 197.53 587.456 196.649C585.929 195.769 584.722 194.494 583.834 192.825C582.953 191.156 582.513 189.135 582.513 186.763C582.513 184.384 582.96 182.359 583.855 180.69C584.75 179.021 585.964 177.75 587.499 176.877C589.033 175.996 590.759 175.556 592.676 175.556C593.94 175.556 595.112 175.733 596.192 176.088C597.278 176.443 598.241 176.962 599.079 177.644C599.917 178.318 600.599 179.146 601.124 180.126C601.657 181.106 601.998 182.228 602.147 183.492ZM618.931 175.854H623.544V190.023C623.544 191.614 623.164 193.006 622.404 194.199C621.652 195.392 620.597 196.323 619.24 196.99C617.884 197.651 616.304 197.981 614.5 197.981C612.689 197.981 611.105 197.651 609.748 196.99C608.392 196.323 607.337 195.392 606.584 194.199C605.831 193.006 605.455 191.614 605.455 190.023V175.854H610.068V189.629C610.068 190.46 610.249 191.198 610.611 191.845C610.98 192.491 611.499 192.999 612.167 193.368C612.834 193.737 613.612 193.922 614.5 193.922C615.395 193.922 616.172 193.737 616.833 193.368C617.5 192.999 618.015 192.491 618.377 191.845C618.747 191.198 618.931 190.46 618.931 189.629V175.854ZM627.34 197.672V175.854H635.948C637.595 175.854 639.002 176.149 640.166 176.738C641.338 177.32 642.23 178.148 642.84 179.22C643.458 180.286 643.767 181.539 643.767 182.981C643.767 184.43 643.455 185.676 642.83 186.72C642.205 187.757 641.299 188.553 640.113 189.107C638.934 189.661 637.507 189.938 635.83 189.938H630.067V186.23H635.085C635.965 186.23 636.697 186.109 637.279 185.868C637.862 185.627 638.295 185.264 638.579 184.781C638.87 184.298 639.016 183.698 639.016 182.981C639.016 182.257 638.87 181.646 638.579 181.149C638.295 180.651 637.858 180.275 637.269 180.019C636.686 179.757 635.951 179.625 635.063 179.625H631.953V197.672H627.34ZM639.122 187.743L644.545 197.672H639.453L634.147 187.743H639.122ZM658.863 182.129C658.778 181.269 658.412 180.602 657.766 180.126C657.119 179.65 656.242 179.412 655.134 179.412C654.382 179.412 653.746 179.519 653.227 179.732C652.709 179.938 652.311 180.225 652.034 180.595C651.764 180.964 651.629 181.383 651.629 181.852C651.615 182.242 651.697 182.583 651.874 182.874C652.059 183.166 652.311 183.418 652.631 183.631C652.95 183.837 653.32 184.018 653.739 184.174C654.158 184.323 654.605 184.451 655.081 184.558L657.041 185.026C657.993 185.239 658.867 185.524 659.662 185.879C660.458 186.234 661.146 186.671 661.729 187.189C662.311 187.708 662.762 188.318 663.082 189.021C663.409 189.725 663.575 190.531 663.583 191.44C663.575 192.775 663.235 193.933 662.56 194.913C661.892 195.886 660.926 196.642 659.662 197.182C658.405 197.715 656.889 197.981 655.113 197.981C653.352 197.981 651.818 197.711 650.511 197.171C649.211 196.632 648.195 195.833 647.464 194.774C646.74 193.709 646.36 192.391 646.324 190.822H650.788C650.838 191.553 651.047 192.164 651.416 192.654C651.793 193.137 652.294 193.503 652.919 193.752C653.551 193.993 654.264 194.114 655.06 194.114C655.841 194.114 656.519 194 657.095 193.773C657.677 193.546 658.128 193.23 658.448 192.825C658.767 192.42 658.927 191.955 658.927 191.429C658.927 190.939 658.781 190.527 658.49 190.193C658.206 189.859 657.787 189.575 657.233 189.341C656.686 189.107 656.015 188.894 655.22 188.702L652.844 188.105C651.004 187.658 649.552 186.958 648.487 186.007C647.421 185.055 646.892 183.773 646.899 182.161C646.892 180.84 647.244 179.685 647.954 178.698C648.671 177.711 649.655 176.94 650.905 176.386C652.155 175.833 653.575 175.556 655.166 175.556C656.786 175.556 658.199 175.833 659.406 176.386C660.621 176.94 661.566 177.711 662.24 178.698C662.915 179.685 663.263 180.829 663.284 182.129H658.863ZM686.735 186.763C686.735 189.142 686.284 191.166 685.382 192.835C684.487 194.504 683.266 195.779 681.717 196.66C680.176 197.534 678.443 197.97 676.518 197.97C674.58 197.97 672.839 197.53 671.298 196.649C669.757 195.769 668.539 194.494 667.644 192.825C666.749 191.156 666.302 189.135 666.302 186.763C666.302 184.384 666.749 182.359 667.644 180.69C668.539 179.021 669.757 177.75 671.298 176.877C672.839 175.996 674.58 175.556 676.518 175.556C678.443 175.556 680.176 175.996 681.717 176.877C683.266 177.75 684.487 179.021 685.382 180.69C686.284 182.359 686.735 184.384 686.735 186.763ZM682.058 186.763C682.058 185.222 681.827 183.922 681.366 182.864C680.911 181.806 680.268 181.003 679.438 180.456C678.607 179.909 677.634 179.636 676.518 179.636C675.403 179.636 674.43 179.909 673.599 180.456C672.768 181.003 672.122 181.806 671.661 182.864C671.206 183.922 670.979 185.222 670.979 186.763C670.979 188.304 671.206 189.604 671.661 190.662C672.122 191.72 672.768 192.523 673.599 193.07C674.43 193.617 675.403 193.89 676.518 193.89C677.634 193.89 678.607 193.617 679.438 193.07C680.268 192.523 680.911 191.72 681.366 190.662C681.827 189.604 682.058 188.304 682.058 186.763ZM701.988 182.129C701.903 181.269 701.537 180.602 700.891 180.126C700.244 179.65 699.367 179.412 698.259 179.412C697.507 179.412 696.871 179.519 696.352 179.732C695.834 179.938 695.436 180.225 695.159 180.595C694.889 180.964 694.754 181.383 694.754 181.852C694.74 182.242 694.822 182.583 694.999 182.874C695.184 183.166 695.436 183.418 695.756 183.631C696.075 183.837 696.445 184.018 696.864 184.174C697.283 184.323 697.73 184.451 698.206 184.558L700.166 185.026C701.118 185.239 701.992 185.524 702.787 185.879C703.583 186.234 704.271 186.671 704.854 187.189C705.436 187.708 705.887 188.318 706.207 189.021C706.534 189.725 706.7 190.531 706.708 191.44C706.7 192.775 706.36 193.933 705.685 194.913C705.017 195.886 704.051 196.642 702.787 197.182C701.53 197.715 700.014 197.981 698.238 197.981C696.477 197.981 694.943 197.711 693.636 197.171C692.336 196.632 691.32 195.833 690.589 194.774C689.865 193.709 689.485 192.391 689.449 190.822H693.913C693.963 191.553 694.172 192.164 694.541 192.654C694.918 193.137 695.419 193.503 696.044 193.752C696.676 193.993 697.389 194.114 698.185 194.114C698.966 194.114 699.644 194 700.22 193.773C700.802 193.546 701.253 193.23 701.573 192.825C701.892 192.42 702.052 191.955 702.052 191.429C702.052 190.939 701.906 190.527 701.615 190.193C701.331 189.859 700.912 189.575 700.358 189.341C699.811 189.107 699.14 188.894 698.345 188.702L695.969 188.105C694.129 187.658 692.677 186.958 691.612 186.007C690.546 185.055 690.017 183.773 690.024 182.161C690.017 180.84 690.369 179.685 691.079 178.698C691.796 177.711 692.78 176.94 694.03 176.386C695.28 175.833 696.7 175.556 698.291 175.556C699.911 175.556 701.324 175.833 702.531 176.386C703.746 176.94 704.691 177.711 705.365 178.698C706.04 179.685 706.388 180.829 706.409 182.129H701.988Z" fill="black"/>
</g>
<defs>
<clipPath id="clip0_2012_384">
<rect width="712" height="201" fill="white"/>
</clipPath>
</defs>
</svg>
